<?xml version="1.0" encoding="UTF-8" standalone="no"?><!DOCTYPE svg PUBLIC "-//W3C//DTD SVG 1.1//EN" "http://www.w3.org/Graphics/SVG/1.1/DTD/svg11.dtd"><svg width="100%" height="100%" viewBox="0 0 92 92" version="1.1" xmlns="http://www.w3.org/2000/svg" xmlns:xlink="http://www.w3.org/1999/xlink" xml:space="preserve" xmlns:serif="http://www.serif.com/" style="fill-rule:evenodd;clip-rule:evenodd;stroke-linejoin:round;stroke-miterlimit:2;"><g><g><path d="M30.082,88.179l52.218,-0c3.242,-0 5.879,-2.637 5.879,-5.879l-0,-5.878l-55.847,-0l0,5.878c0,2.256 -0.852,4.318 -2.25,5.879Zm52.218,2.939l-58.786,0c-4.863,0 -8.818,-3.955 -8.818,-8.818l0,-73.482c0,-3.242 -2.636,-5.879 -5.878,-5.879c-3.242,0 -5.879,2.637 -5.879,5.879l0,8.818l8.818,-0l0,2.939l-11.757,0l-0,-11.757c-0,-4.863 3.953,-8.818 8.818,-8.818c4.863,0 8.818,3.955 8.818,8.818l-0,73.482c-0,3.242 2.636,5.879 5.878,5.879c3.242,-0 5.879,-2.637 5.879,-5.879l-0,-8.818l61.725,0l0,8.818c0,4.863 -3.955,8.818 -8.818,8.818Z" style="fill:#829c5a;fill-rule:nonzero;"/><path d="M76.422,8.818l-2.94,-0c0,-3.242 -2.636,-5.879 -5.878,-5.879l-58.786,0l-0,-2.939l58.786,0c4.863,0 8.818,3.955 8.818,8.818Z" style="fill:#829c5a;fill-rule:nonzero;"/><rect x="73.482" y="29.393" width="2.939" height="23.514" style="fill:#829c5a;fill-rule:nonzero;"/><path d="M42.62,24.984c-8.914,0 -16.166,7.253 -16.166,16.166c-0,8.914 7.252,16.166 16.166,16.166c8.913,0 16.166,-7.252 16.166,-16.166c-0,-8.913 -7.253,-16.166 -16.166,-16.166Zm-0,35.272c-10.535,-0 -19.106,-8.571 -19.106,-19.106c0,-10.534 8.571,-19.105 19.106,-19.105c10.534,-0 19.105,8.571 19.105,19.105c0,10.535 -8.571,19.106 -19.105,19.106Z" style="fill:#829c5a;fill-rule:nonzero;"/><path d="M42.62,32.332c-4.863,0 -8.818,3.955 -8.818,8.818c-0,4.863 3.955,8.818 8.818,8.818c4.863,0 8.818,-3.955 8.818,-8.818c-0,-4.863 -3.955,-8.818 -8.818,-8.818Zm-0,20.575c-6.483,0 -11.757,-5.274 -11.757,-11.757c-0,-6.482 5.274,-11.757 11.757,-11.757c6.482,-0 11.757,5.275 11.757,11.757c-0,6.483 -5.275,11.757 -11.757,11.757Z" style="fill:#829c5a;fill-rule:nonzero;"/><path d="M58.283,48.409l-5.878,-2.137l1.005,-2.762l5.878,2.139l-1.005,2.76Z" style="fill:#829c5a;fill-rule:nonzero;"/><path d="M35.242,33.174l-4.113,-5.878l2.407,-1.684l4.115,5.878l-2.409,1.684Z" style="fill:#829c5a;fill-rule:nonzero;"/><path d="M70.543,23.514l17.636,0l-0,-8.818l-17.636,0l0,8.818Zm20.575,2.94l-23.514,-0l-0,-14.697l23.514,0l0,14.697Z" style="fill:#829c5a;fill-rule:nonzero;"/><rect x="73.482" y="17.636" width="11.757" height="2.939" style="fill:#829c5a;fill-rule:nonzero;"/><path d="M58.355,26.023l-2.078,-2.077l6.309,-6.31l6.487,-0l0,2.939l-5.27,0l-5.448,5.448Z" style="fill:#829c5a;fill-rule:nonzero;"/><path d="M70.543,67.604l17.636,-0l-0,-8.818l-17.636,-0l0,8.818Zm20.575,2.939l-23.514,0l-0,-14.696l23.514,-0l0,14.696Z" style="fill:#829c5a;fill-rule:nonzero;"/><rect x="73.482" y="61.725" width="11.757" height="2.939" style="fill:#829c5a;fill-rule:nonzero;"/><path d="M69.073,64.664l-6.487,0l-6.309,-6.309l2.078,-2.078l5.448,5.448l5.27,0l0,2.939Z" style="fill:#829c5a;fill-rule:nonzero;"/><rect x="29.393" y="8.818" width="17.636" height="2.939" style="fill:#829c5a;fill-rule:nonzero;"/><rect x="29.393" y="14.696" width="7.348" height="2.939" style="fill:#829c5a;fill-rule:nonzero;"/><rect x="39.68" y="14.696" width="7.348" height="2.939" style="fill:#829c5a;fill-rule:nonzero;"/></g></g></svg>