<?xml version="1.0" encoding="UTF-8" standalone="no"?><!DOCTYPE svg PUBLIC "-//W3C//DTD SVG 1.1//EN" "http://www.w3.org/Graphics/SVG/1.1/DTD/svg11.dtd"><svg width="100%" height="100%" viewBox="0 0 47 47" version="1.1" xmlns="http://www.w3.org/2000/svg" xmlns:xlink="http://www.w3.org/1999/xlink" xml:space="preserve" xmlns:serif="http://www.serif.com/" style="fill-rule:evenodd;clip-rule:evenodd;stroke-linejoin:round;stroke-miterlimit:2;"><g><g><rect x="13.5" y="41.25" width="1.5" height="4.5" style="fill:#829c5a;fill-rule:nonzero;"/><rect x="27" y="41.25" width="1.5" height="4.5" style="fill:#829c5a;fill-rule:nonzero;"/><rect x="10.5" y="45" width="21" height="1.5" style="fill:#829c5a;fill-rule:nonzero;"/><path d="M1.5,37.5l0,0.75c0,1.241 1.009,2.25 2.25,2.25l34.5,0c1.24,0 2.25,-1.009 2.25,-2.25l0,-0.75l-39,0Zm36.75,4.5l-34.5,0c-2.068,0 -3.75,-1.682 -3.75,-3.75l0,-2.25l42,0l0,2.25c0,2.068 -1.683,3.75 -3.75,3.75Z" style="fill:#829c5a;fill-rule:nonzero;"/><path d="M1.5,34.5l-1.5,0l0,-21.75c0,-2.068 1.682,-3.75 3.75,-3.75l21.75,0l0,1.5l-21.75,0c-1.241,0 -2.25,1.009 -2.25,2.25l0,21.75Z" style="fill:#829c5a;fill-rule:nonzero;"/><rect x="40.5" y="30" width="1.5" height="4.5" style="fill:#829c5a;fill-rule:nonzero;"/><path d="M28.5,24l0,2.25c0,0.414 0.336,0.75 0.75,0.75l15,0c0.413,0 0.75,-0.336 0.75,-0.75l0,-2.25l-16.5,0Zm15.75,4.5l-15,0c-1.241,0 -2.25,-1.009 -2.25,-2.25l0,-3.75l19.5,0l0,3.75c0,1.241 -1.01,2.25 -2.25,2.25Z" style="fill:#829c5a;fill-rule:nonzero;"/><rect x="30" y="12" width="13.5" height="1.5" style="fill:#829c5a;fill-rule:nonzero;"/><rect x="31.5" y="8.25" width="1.5" height="4.5" style="fill:#829c5a;fill-rule:nonzero;"/><rect x="34.5" y="6.75" width="1.5" height="6" style="fill:#829c5a;fill-rule:nonzero;"/><rect x="37.5" y="5.25" width="1.5" height="7.5" style="fill:#829c5a;fill-rule:nonzero;"/><rect x="40.5" y="6.75" width="1.5" height="6" style="fill:#829c5a;fill-rule:nonzero;"/><path d="M46.5,21l-1.5,0l0,-18.75c0,-0.414 -0.337,-0.75 -0.75,-0.75l-15,0c-0.414,0 -0.75,0.336 -0.75,0.75l0,18.75l-1.5,0l0,-18.75c0,-1.241 1.009,-2.25 2.25,-2.25l15,0c1.24,0 2.25,1.009 2.25,2.25l0,18.75Z" style="fill:#829c5a;fill-rule:nonzero;"/><rect x="30" y="15" width="1.5" height="1.5" style="fill:#829c5a;fill-rule:nonzero;"/><rect x="42" y="15" width="1.5" height="1.5" style="fill:#829c5a;fill-rule:nonzero;"/><rect x="33" y="15" width="7.5" height="1.5" style="fill:#829c5a;fill-rule:nonzero;"/><rect x="3" y="33" width="36" height="1.5" style="fill:#829c5a;fill-rule:nonzero;"/><path d="M12,30c-4.55,0 -8.25,-3.701 -8.25,-8.25c0,-4.549 3.7,-8.25 8.25,-8.25c2.619,0 5.024,1.203 6.6,3.299l-1.199,0.902c-1.29,-1.716 -3.258,-2.701 -5.401,-2.701c-3.722,0 -6.75,3.028 -6.75,6.75c0,3.722 3.028,6.75 6.75,6.75c3.722,0 6.75,-3.028 6.75,-6.75c0,-0.691 -0.104,-1.373 -0.31,-2.025l1.432,-0.45c0.251,0.798 0.378,1.63 0.378,2.475c0,4.549 -3.701,8.25 -8.25,8.25Z" style="fill:#829c5a;fill-rule:nonzero;"/><path d="M17.55,26.85l-6.222,-4.666l-1.561,-7.021l1.465,-0.326l1.439,6.479l5.778,4.334l-0.899,1.2Z" style="fill:#829c5a;fill-rule:nonzero;"/><path d="M8.906,28.864l-1.312,-0.728l3.75,-6.75l1.312,0.728l-3.75,6.75Z" style="fill:#829c5a;fill-rule:nonzero;"/><path d="M16.21,20.092l-0.921,-1.184l6.954,-5.408l5.507,0l0,1.5l-4.994,0l-6.546,5.092Z" style="fill:#829c5a;fill-rule:nonzero;"/></g></g></svg>