<?xml version="1.0" encoding="UTF-8" standalone="no"?><!DOCTYPE svg PUBLIC "-//W3C//DTD SVG 1.1//EN" "http://www.w3.org/Graphics/SVG/1.1/DTD/svg11.dtd"><svg width="100%" height="100%" viewBox="0 0 466 185" version="1.1" xmlns="http://www.w3.org/2000/svg" xmlns:xlink="http://www.w3.org/1999/xlink" xml:space="preserve" xmlns:serif="http://www.serif.com/" style="fill-rule:evenodd;clip-rule:evenodd;stroke-linejoin:round;stroke-miterlimit:2;"><g><g><path d="M193.109,156.474l-6.482,-6.48c-0.607,-0.607 -1.432,-0.949 -2.292,-0.949l-0.02,0c-0.866,0.006 -1.695,0.359 -2.3,0.978l-14.846,15.223l-10.361,-0l-4.412,-3.941c13.758,-3.026 23.642,-15.318 23.642,-29.401c0,-4.839 -1.167,-9.608 -3.402,-13.9l-35.591,-68.425c1.531,-3.358 2.323,-7.007 2.321,-10.698l-0,-6.805c7.511,-1.544 12.954,-8.209 12.964,-15.875l-0,-3.241c-0.001,-7.11 -5.853,-12.96 -12.965,-12.96c-6.124,0 -11.453,4.337 -12.696,10.332c-8.059,-5.127 -18.404,-5.127 -26.464,-0c-1.242,-5.995 -6.572,-10.332 -12.695,-10.332c-7.113,0 -12.965,5.85 -12.966,12.96l0,3.241c0.011,7.666 5.453,14.331 12.965,15.875l-0,6.805c-0.001,2.251 0.293,4.492 0.873,6.667c-4.231,0.641 -8.027,2.967 -10.519,6.444l-11.469,16.05l-18.393,0l-42.6,-38.057c-0.594,-0.53 -1.363,-0.824 -2.16,-0.824c-1.778,0 -3.241,1.463 -3.241,3.24l0,22.681c-0,0.927 0.398,1.81 1.091,2.425l23.692,20.993l-4.792,7.186c-0.645,0.966 -0.722,2.208 -0.202,3.246l3.241,6.481c0.548,1.095 1.673,1.79 2.898,1.791l19.963,-0l14.478,12.829l-1.081,1.08c-0.984,0.984 -1.229,2.496 -0.607,3.74l3.241,6.481c0.549,1.095 1.674,1.79 2.899,1.79l10.322,0l16.869,14.948c-4.688,3.327 -5.896,9.869 -2.706,14.65l5.229,7.841c0.601,0.901 1.614,1.443 2.697,1.443l21.79,-0l24.676,21.865c0.593,0.525 1.358,0.816 2.15,0.816l38.893,-0c1.778,-0.001 3.241,-1.463 3.241,-3.241c-0,-0.859 -0.342,-1.683 -0.95,-2.291l-4.462,-4.461l10.809,-13.944c0.996,-1.283 0.879,-3.127 -0.27,-4.276Zm-112.082,-140.273l-0,-3.241c-0,-3.554 2.926,-6.48 6.482,-6.48c3.556,0 6.482,2.926 6.482,6.48l-0,3.241c-0,1.777 1.463,3.24 3.241,3.24c0.64,-0 1.265,-0.19 1.798,-0.545l4.329,-2.885c6.091,-4.059 14.065,-4.059 20.156,-0l4.33,2.885c0.532,0.355 1.158,0.545 1.798,0.545c1.778,-0 3.241,-1.463 3.241,-3.24l-0,-3.241c-0,-3.554 2.926,-6.48 6.482,-6.48c3.556,0 6.482,2.926 6.482,6.48l-0,3.241c-0.006,5.33 -4.392,9.714 -9.723,9.72c-1.778,0 -3.241,1.463 -3.241,3.24l-0,9.72c-0,10.665 -8.779,19.441 -19.447,19.441c-10.668,0 -19.446,-8.776 -19.446,-19.441l-0,-9.72c-0,-1.777 -1.463,-3.24 -3.241,-3.24c-5.332,-0.006 -9.717,-4.39 -9.723,-9.72Zm-12.965,58.322c1.046,-0 2.03,-0.506 2.638,-1.357l12.437,-17.408c1.603,-2.236 4.113,-3.657 6.856,-3.882c-5.819,8.6 -8.942,18.744 -8.966,29.127l-0,9.72l-7.637,0l-18.135,-16.2l12.807,-0Zm-40.13,16.2l-1.505,-3.007l3.253,-4.877l8.897,7.884l-10.645,0Zm-21.45,-37.099l0,-13.982l61.58,55.013l0,7.687l-3.101,3.1l-58.479,-51.818Zm59.042,60.42l8.071,-8.069c0.608,-0.608 0.949,-1.432 0.949,-2.291l0,-6.48l22.688,-0c7.109,-0.009 12.956,-5.854 12.964,-12.961l0,-6.48l-6.482,-0l-0,6.48c-0.004,3.553 -2.928,6.476 -6.482,6.48l-9.723,0l-0,-9.72c0.019,-8.618 2.478,-17.057 7.09,-24.338c4.887,5.191 11.709,8.137 18.84,8.137c7.507,0 14.655,-3.267 19.566,-8.943l12.843,24.69l-0,0.454c-0.018,15.99 -13.175,29.143 -29.17,29.161l-29.169,-0c-0.64,0 -1.266,0.189 -1.798,0.544l-8.907,5.936l-9.98,0l-1.3,-2.6Zm34.018,22.041l-17.266,-15.299l6.214,-4.142l4.186,0l17.785,15.888c-0.139,1.173 -0.22,2.357 -0.246,3.553l-10.673,-0Zm12.537,-10.798l-9.675,-8.643l13.913,0c-1.793,2.679 -3.219,5.586 -4.238,8.643Zm-15.273,26.999l6.908,-0l-0,-6.481l-9.603,0c0.453,-1.891 2.157,-3.237 4.102,-3.24l11.983,0l0,6.48l6.482,0l0,-12.174c-0.021,-7.944 3.14,-15.574 8.774,-21.176l0.194,-0.193c12.287,-3.221 21.972,-12.749 25.39,-24.978l15.849,30.469c1.755,3.369 2.671,7.112 2.671,10.91c0,12.954 -10.658,23.615 -23.615,23.623l-46.975,-0l-2.16,-3.24Zm78.891,20.696c-0.996,1.283 -0.879,3.127 0.269,4.276l0.95,0.948l-29.839,0l-18.283,-16.2l14.659,-0l9.958,8.896c0.594,0.531 1.363,0.824 2.16,0.824l12.964,0c0.874,0 1.711,-0.353 2.321,-0.978l13.509,-13.851l2.141,2.141l-10.809,13.944Z" style="fill:#47583e;fill-rule:nonzero;"/><path d="M103.714,38.881l3.241,0l0,-3.24c0,-1.777 -1.463,-3.24 -3.241,-3.24l-3.241,0l-0,3.24c-0,1.778 1.463,3.24 3.241,3.24Z" style="fill:#47583e;fill-rule:nonzero;"/><path d="M126.401,35.641l0,-3.24l-3.241,0c-1.778,0 -3.241,1.463 -3.241,3.24l0,3.24l3.241,0c1.778,0 3.241,-1.462 3.241,-3.24Z" style="fill:#47583e;fill-rule:nonzero;"/><path d="M113.437,48.602c1.778,-0 3.241,-1.463 3.241,-3.24l0,-1.62c0,-0.889 -0.731,-1.62 -1.62,-1.62l-3.241,-0c-0.889,-0 -1.621,0.731 -1.621,1.62l0,1.62c0,1.777 1.463,3.24 3.241,3.24Z" style="fill:#47583e;fill-rule:nonzero;"/></g><g transform="matrix(1.76874,0,0,1.76822,-3274.7,-1650.6)"><g transform="matrix(50,0,0,50,1973.29,975.427)"><path d="M0.12,-0.255c0,0.056 0.012,0.102 0.036,0.14c0.024,0.038 0.062,0.057 0.114,0.057c0.041,-0 0.074,-0.018 0.1,-0.053c0.027,-0.035 0.04,-0.085 0.04,-0.15c-0,-0.066 -0.014,-0.115 -0.041,-0.147c-0.027,-0.032 -0.06,-0.048 -0.1,-0.048c-0.044,0 -0.08,0.017 -0.108,0.051c-0.027,0.034 -0.041,0.084 -0.041,0.15Zm0.132,-0.277c0.04,-0 0.074,0.008 0.101,0.025c0.016,0.01 0.033,0.027 0.053,0.051l0,-0.264l0.085,0l-0,0.72l-0.079,-0l-0,-0.073c-0.021,0.032 -0.045,0.056 -0.073,0.07c-0.028,0.014 -0.06,0.022 -0.096,0.022c-0.059,-0 -0.109,-0.025 -0.152,-0.074c-0.042,-0.049 -0.064,-0.114 -0.064,-0.195c0,-0.077 0.02,-0.143 0.059,-0.198c0.039,-0.056 0.094,-0.084 0.166,-0.084Z" style="fill:#47583e;fill-rule:nonzero;"/></g><g transform="matrix(50,0,0,50,2001.1,975.427)"><path d="M0.132,-0.139c-0,0.025 0.009,0.045 0.028,0.06c0.018,0.015 0.04,0.022 0.066,0.022c0.031,-0 0.06,-0.007 0.089,-0.022c0.049,-0.023 0.074,-0.062 0.074,-0.116l-0,-0.071c-0.011,0.007 -0.025,0.012 -0.042,0.017c-0.017,0.005 -0.033,0.008 -0.05,0.01l-0.053,0.007c-0.032,0.004 -0.056,0.01 -0.072,0.02c-0.027,0.015 -0.04,0.039 -0.04,0.073Zm0.213,-0.178c0.02,-0.002 0.033,-0.011 0.04,-0.025c0.004,-0.008 0.006,-0.019 0.006,-0.034c0,-0.03 -0.011,-0.052 -0.032,-0.065c-0.021,-0.014 -0.052,-0.02 -0.091,-0.02c-0.046,-0 -0.079,0.012 -0.098,0.037c-0.011,0.013 -0.018,0.034 -0.021,0.061l-0.082,-0c0.002,-0.065 0.022,-0.11 0.063,-0.135c0.04,-0.025 0.086,-0.038 0.14,-0.038c0.061,0 0.111,0.012 0.149,0.036c0.039,0.023 0.058,0.059 0.058,0.109l-0,0.301c-0,0.009 0.001,0.017 0.005,0.022c0.004,0.006 0.012,0.008 0.024,0.008c0.004,0 0.008,0 0.013,-0c0.005,-0.001 0.01,-0.002 0.016,-0.002l-0,0.064c-0.014,0.004 -0.024,0.007 -0.032,0.008c-0.007,0.001 -0.017,0.001 -0.029,0.001c-0.03,0 -0.052,-0.011 -0.066,-0.032c-0.007,-0.011 -0.012,-0.028 -0.015,-0.048c-0.018,0.023 -0.044,0.043 -0.077,0.061c-0.034,0.017 -0.071,0.026 -0.111,0.026c-0.048,-0 -0.088,-0.015 -0.119,-0.045c-0.031,-0.029 -0.046,-0.066 -0.046,-0.11c0,-0.049 0.015,-0.086 0.045,-0.113c0.031,-0.027 0.07,-0.043 0.12,-0.049l0.14,-0.018Z" style="fill:#47583e;fill-rule:nonzero;"/></g><g transform="matrix(50,0,0,50,2028.91,975.427)"><path d="M0.082,-0.669l0.089,0l-0,0.146l0.083,0l0,0.072l-0.083,-0l-0,0.341c-0,0.018 0.006,0.031 0.018,0.037c0.007,0.003 0.019,0.005 0.035,0.005c0.004,0 0.008,0 0.013,-0c0.005,-0 0.011,-0.001 0.017,-0.001l0,0.069c-0.01,0.003 -0.02,0.005 -0.031,0.006c-0.011,0.002 -0.023,0.002 -0.036,0.002c-0.041,0 -0.068,-0.01 -0.083,-0.031c-0.015,-0.021 -0.022,-0.048 -0.022,-0.082l0,-0.346l-0.071,-0l0,-0.072l0.071,0l0,-0.146Z" style="fill:#47583e;fill-rule:nonzero;"/></g><g transform="matrix(50,0,0,50,2042.8,975.427)"><path d="M0.132,-0.139c-0,0.025 0.009,0.045 0.028,0.06c0.018,0.015 0.04,0.022 0.066,0.022c0.031,-0 0.06,-0.007 0.089,-0.022c0.049,-0.023 0.074,-0.062 0.074,-0.116l-0,-0.071c-0.011,0.007 -0.025,0.012 -0.042,0.017c-0.017,0.005 -0.033,0.008 -0.05,0.01l-0.053,0.007c-0.032,0.004 -0.056,0.01 -0.072,0.02c-0.027,0.015 -0.04,0.039 -0.04,0.073Zm0.213,-0.178c0.02,-0.002 0.033,-0.011 0.04,-0.025c0.004,-0.008 0.006,-0.019 0.006,-0.034c0,-0.03 -0.011,-0.052 -0.032,-0.065c-0.021,-0.014 -0.052,-0.02 -0.091,-0.02c-0.046,-0 -0.079,0.012 -0.098,0.037c-0.011,0.013 -0.018,0.034 -0.021,0.061l-0.082,-0c0.002,-0.065 0.022,-0.11 0.063,-0.135c0.04,-0.025 0.086,-0.038 0.14,-0.038c0.061,0 0.111,0.012 0.149,0.036c0.039,0.023 0.058,0.059 0.058,0.109l-0,0.301c-0,0.009 0.001,0.017 0.005,0.022c0.004,0.006 0.012,0.008 0.024,0.008c0.004,0 0.008,0 0.013,-0c0.005,-0.001 0.01,-0.002 0.016,-0.002l-0,0.064c-0.014,0.004 -0.024,0.007 -0.032,0.008c-0.007,0.001 -0.017,0.001 -0.029,0.001c-0.03,0 -0.052,-0.011 -0.066,-0.032c-0.007,-0.011 -0.012,-0.028 -0.015,-0.048c-0.018,0.023 -0.044,0.043 -0.077,0.061c-0.034,0.017 -0.071,0.026 -0.111,0.026c-0.048,-0 -0.088,-0.015 -0.119,-0.045c-0.031,-0.029 -0.046,-0.066 -0.046,-0.11c0,-0.049 0.015,-0.086 0.045,-0.113c0.031,-0.027 0.07,-0.043 0.12,-0.049l0.14,-0.018Z" style="fill:#47583e;fill-rule:nonzero;"/></g><g transform="matrix(50,0,0,50,1973.29,1019.87)"><path d="M0.063,-0.717l0.084,-0l-0,0.416l0.226,-0.222l0.112,0l-0.2,0.196l0.211,0.327l-0.112,-0l-0.163,-0.264l-0.074,0.068l-0,0.196l-0.085,-0l0,-0.717Z" style="fill:#47583e;fill-rule:nonzero;"/></g><g transform="matrix(50,0,0,50,1998.29,1019.87)"><path d="M0.272,-0.057c0.058,0 0.098,-0.022 0.12,-0.066c0.021,-0.044 0.032,-0.093 0.032,-0.147c0,-0.049 -0.007,-0.089 -0.023,-0.119c-0.025,-0.048 -0.068,-0.072 -0.128,-0.072c-0.054,-0 -0.093,0.02 -0.117,0.061c-0.025,0.041 -0.037,0.091 -0.037,0.149c0,0.055 0.012,0.102 0.037,0.139c0.024,0.037 0.063,0.055 0.116,0.055Zm0.003,-0.481c0.068,-0 0.125,0.022 0.171,0.067c0.047,0.045 0.07,0.111 0.07,0.199c0,0.084 -0.02,0.154 -0.061,0.209c-0.041,0.055 -0.105,0.082 -0.191,0.082c-0.072,0 -0.129,-0.024 -0.172,-0.073c-0.042,-0.049 -0.063,-0.114 -0.063,-0.196c-0,-0.088 0.022,-0.158 0.067,-0.21c0.044,-0.052 0.104,-0.078 0.179,-0.078Z" style="fill:#47583e;fill-rule:nonzero;"/></g><g transform="matrix(50,0,0,50,2026.1,1019.87)"><path d="M0.132,-0.139c-0,0.025 0.009,0.045 0.028,0.06c0.018,0.015 0.04,0.022 0.066,0.022c0.031,-0 0.06,-0.007 0.089,-0.022c0.049,-0.023 0.074,-0.062 0.074,-0.116l-0,-0.071c-0.011,0.007 -0.025,0.012 -0.042,0.017c-0.017,0.005 -0.033,0.008 -0.05,0.01l-0.053,0.007c-0.032,0.004 -0.056,0.01 -0.072,0.02c-0.027,0.015 -0.04,0.039 -0.04,0.073Zm0.213,-0.178c0.02,-0.002 0.033,-0.011 0.04,-0.025c0.004,-0.008 0.006,-0.019 0.006,-0.034c0,-0.03 -0.011,-0.052 -0.032,-0.065c-0.021,-0.014 -0.052,-0.02 -0.091,-0.02c-0.046,-0 -0.079,0.012 -0.098,0.037c-0.011,0.013 -0.018,0.034 -0.021,0.061l-0.082,-0c0.002,-0.065 0.022,-0.11 0.063,-0.135c0.04,-0.025 0.086,-0.038 0.14,-0.038c0.061,0 0.111,0.012 0.149,0.036c0.039,0.023 0.058,0.059 0.058,0.109l-0,0.301c-0,0.009 0.001,0.017 0.005,0.022c0.004,0.006 0.012,0.008 0.024,0.008c0.004,0 0.008,0 0.013,-0c0.005,-0.001 0.01,-0.002 0.016,-0.002l-0,0.064c-0.014,0.004 -0.024,0.007 -0.032,0.008c-0.007,0.001 -0.017,0.001 -0.029,0.001c-0.03,0 -0.052,-0.011 -0.066,-0.032c-0.007,-0.011 -0.012,-0.028 -0.015,-0.048c-0.018,0.023 -0.044,0.043 -0.077,0.061c-0.034,0.017 -0.071,0.026 -0.111,0.026c-0.048,-0 -0.088,-0.015 -0.119,-0.045c-0.031,-0.029 -0.046,-0.066 -0.046,-0.11c0,-0.049 0.015,-0.086 0.045,-0.113c0.031,-0.027 0.07,-0.043 0.12,-0.049l0.14,-0.018Z" style="fill:#47583e;fill-rule:nonzero;"/></g><g transform="matrix(50,0,0,50,2053.91,1019.87)"><rect x="0.067" y="-0.717" width="0.088" height="0.717" style="fill:#47583e;fill-rule:nonzero;"/></g><g transform="matrix(50,0,0,50,2065.01,1019.87)"><path d="M0.064,-0.521l0.09,0l-0,0.521l-0.09,-0l0,-0.521Zm0,-0.196l0.09,-0l-0,0.099l-0.09,0l0,-0.099Z" style="fill:#47583e;fill-rule:nonzero;"/></g><g transform="matrix(50,0,0,50,2076.12,1019.87)"><path d="M0.082,-0.669l0.089,0l-0,0.146l0.083,0l0,0.072l-0.083,-0l-0,0.341c-0,0.018 0.006,0.031 0.018,0.037c0.007,0.003 0.019,0.005 0.035,0.005c0.004,0 0.008,0 0.013,-0c0.005,-0 0.011,-0.001 0.017,-0.001l0,0.069c-0.01,0.003 -0.02,0.005 -0.031,0.006c-0.011,0.002 -0.023,0.002 -0.036,0.002c-0.041,0 -0.068,-0.01 -0.083,-0.031c-0.015,-0.021 -0.022,-0.048 -0.022,-0.082l0,-0.346l-0.071,-0l0,-0.072l0.071,0l0,-0.146Z" style="fill:#47583e;fill-rule:nonzero;"/></g><g transform="matrix(50,0,0,50,2090.01,1019.87)"><path d="M0.391,-0.523l0.097,0c-0.012,0.034 -0.04,0.11 -0.082,0.23c-0.032,0.089 -0.059,0.163 -0.08,0.219c-0.051,0.134 -0.087,0.215 -0.108,0.244c-0.021,0.03 -0.056,0.044 -0.107,0.044c-0.013,0 -0.022,-0 -0.029,-0.001c-0.006,-0.001 -0.015,-0.003 -0.024,-0.005l-0,-0.081c0.015,0.005 0.026,0.007 0.033,0.008c0.007,0.001 0.013,0.002 0.018,0.002c0.016,-0 0.028,-0.003 0.036,-0.008c0.007,-0.006 0.014,-0.012 0.019,-0.02c0.002,-0.003 0.008,-0.016 0.018,-0.04c0.01,-0.024 0.017,-0.042 0.022,-0.054l-0.194,-0.538l0.1,0l0.14,0.426l0.141,-0.426Z" style="fill:#47583e;fill-rule:nonzero;"/></g></g></g></svg>